<?xml version="1.0" encoding="iso-8859-1"?>
<!DOCTYPE svg PUBLIC "-//W3C//DTD SVG 1.1//EN" "http://www.w3.org/Graphics/SVG/1.1/DTD/svg11.dtd">
<svg version="1.1" xmlns="http://www.w3.org/2000/svg" xmlns:xlink="http://www.w3.org/1999/xlink" x="0px" y="0px" width="480px"
	 height="480px" viewBox="0 0 480 480" style="enable-background:new 0 0 480 480;" xml:space="preserve">
	<path style="fill-rule:evenodd;clip-rule:evenodd;" d="M406.667,180c0,0-100-100-113.334-113.333
		c-13.333-13.334-33.333,0-33.333,0l-160,160c0,0-40,153.333-40,173.333c0,13.333,13.333,13.333,13.333,13.333l173.334-40
		c0,0,146.666-146.666,160-160C420,200,406.667,180,406.667,180z M226.399,356.823L131.95,378.62l-38.516-38.522
		c7.848-34.675,20.152-82.52,23.538-95.593l3.027,2.162l106.667,106.666L226.399,356.823z"/>
</svg>
