<?xml version="1.0" encoding="utf-8"?>
<!-- Generator: Adobe Illustrator 14.0.0, SVG Export Plug-In . SVG Version: 6.00 Build 43363)  -->
<!DOCTYPE svg PUBLIC "-//W3C//DTD SVG 1.1//EN" "http://www.w3.org/Graphics/SVG/1.1/DTD/svg11.dtd">
<svg version="1.1" id="Layer_1" xmlns="http://www.w3.org/2000/svg" xmlns:xlink="http://www.w3.org/1999/xlink" x="0px" y="0px"
	 width="480px" height="480px" viewBox="-216 -216 480 480" enable-background="new -216 -216 480 480" xml:space="preserve">
<g>
	<path d="M-12.859-115.109c-56.5,0-102.297,45.797-102.297,102.289c0,56.508,45.797,102.305,102.297,102.305
		c56.492,0,102.305-45.797,102.305-102.305C89.453-69.312,43.641-115.109-12.859-115.109z M-12.891,57.984
		c-39.117,0-70.828-31.703-70.828-70.828c0-39.117,31.711-70.82,70.828-70.82c39.102,0,70.828,31.719,70.828,70.82
		C57.938,26.273,26.211,57.984-12.891,57.984z"/>
	<path d="M59.062,36.695l27.977,27.945c6.133,6.156,6.133,16.125,0,22.281c-6.156,6.148-16.133,6.148-22.273,0L36.789,58.961
		c-6.148-6.148-6.148-6.125,0-12.266C42.961,40.523,52.914,30.523,59.062,36.695z"/>
	<path d="M113.172,70.797L154.375,112c11.695,11.688,11.695,30.641,0,42.344c-11.703,11.688-30.633,11.688-42.336,0l-41.211-41.211
		c-11.695-11.695-11.695-30.633,0-42.336S101.484,59.094,113.172,70.797z"/>
</g>
</svg>
