<?xml version="1.0" encoding="iso-8859-1"?>
<!DOCTYPE svg PUBLIC "-//W3C//DTD SVG 1.1//EN" "http://www.w3.org/Graphics/SVG/1.1/DTD/svg11.dtd">
<svg version="1.1" xmlns="http://www.w3.org/2000/svg" xmlns:xlink="http://www.w3.org/1999/xlink" x="0px" y="0px" width="480px"
	 height="480px" viewBox="0 0 480 480" style="enable-background:new 0 0 480 480;" xml:space="preserve">
	<path style="fill-rule:evenodd;clip-rule:evenodd;" d="M386.667,146.667h-93.334V140c0-18.411-14.922-33.333-33.333-33.333h-40
		c-18.408,0-33.333,14.922-33.333,33.333v6.667H160c-53.333,13.333-80,40-80,40V360c0,7.363,5.97,13.333,13.333,13.333h293.334
		c7.363,0,13.333-5.97,13.333-13.333V160C400,152.637,394.03,146.667,386.667,146.667z M239.899,346.667
		c-46.025,0-83.334-37.312-83.334-83.334c0-46.021,37.309-83.333,83.334-83.333s83.33,37.312,83.33,83.333
		C323.229,309.355,285.925,346.667,239.899,346.667z M140,126.667c0-3.686-2.985-6.667-6.667-6.667h-40
		c-3.682,0-6.666,2.981-6.666,6.667v34.31c8.86-6.953,26.611-18.933,53.333-28.308V126.667z M239.935,209.707
		c-29.615,0-53.623,24.011-53.623,53.626c0,29.616,24.008,53.627,53.623,53.627c29.616,0,53.62-24.011,53.62-53.627
		C293.555,233.718,269.551,209.707,239.935,209.707z"/>
</svg>
