<?xml version="1.0" encoding="utf-8"?>
<!DOCTYPE svg PUBLIC "-//W3C//DTD SVG 1.0//EN" "http://www.w3.org/TR/2001/REC-SVG-20010904/DTD/svg10.dtd">
<svg version="1.0" xmlns="http://www.w3.org/2000/svg" xmlns:xlink="http://www.w3.org/1999/xlink" x="0px" y="0px" width="96px"
	 height="96px" viewBox="0 0 96 96" enable-background="new 0 0 96 96" xml:space="preserve">
<g id="_x31_0_device_access_mic">
	<g display="inline">
		<g>
			<path fill="#333333" d="M67.605,43.372l-4.58,0.025v6.796c0,8.494-6.842,12.542-15.251,12.542
				c-8.415,0-15.257-4.048-15.257-12.542v-6.796l-4.42-0.025c0,0-0.522,0.829-0.522,1.798c0,0.97,0.522,1.432,0.522,1.432h1.791
				v3.587c0,7.389,4.053,12.315,12.549,14.468v3.436c0,0,1.056,0.528,3.582,0.714v3.652c-8.976,0.364-14.335,1.789-14.335,3.497
				v1.357c0,1.977,7.219,3.584,16.13,3.584c8.907,0,16.129-1.607,16.129-3.584v-1.357c0-1.708-5.365-3.133-14.337-3.497v-3.652
				c2.534-0.186,3.585-0.714,3.585-0.714v-3.47c8.469-2.215,12.545-7.31,12.545-14.434v-3.587h1.869c0,0,0.82-0.466,0.82-1.516
				C68.426,44.043,67.605,43.372,67.605,43.372z M47.814,58.122c5.944,0,10.754-3.168,10.754-7.079v-28.86
				c0-3.91-4.811-7.079-10.754-7.079c-5.938,0-10.753,3.169-10.753,7.079v28.86C37.061,54.954,41.875,58.122,47.814,58.122z"/>
		</g>
	</g>
</g>
</svg>
