<?xml version="1.0" encoding="utf-8"?>
<!DOCTYPE svg PUBLIC "-//W3C//DTD SVG 1.0//EN" "http://www.w3.org/TR/2001/REC-SVG-20010904/DTD/svg10.dtd">
<svg version="1.0" xmlns="http://www.w3.org/2000/svg" xmlns:xlink="http://www.w3.org/1999/xlink" x="0px" y="0px" width="96px"
	 height="96px" viewBox="0 0 96 96" enable-background="new 0 0 96 96" xml:space="preserve">
<g id="_x31_0_device_access_mic_muted">
	<path display="inline" fill="#333333" d="M67.901,43.372l-4.581,0.025v6.796c0,8.494-6.842,12.542-15.251,12.542
		c-3.651,0-7.005-0.765-9.634-2.321l3.554-3.554c1.738,0.793,3.845,1.262,6.12,1.262c5.943,0,10.754-3.168,10.754-7.079V40.005
		l13.885-13.882l-3.217-3.212L58.863,33.578V22.183c0-3.91-4.811-7.079-10.754-7.079c-5.938,0-10.753,3.169-10.753,7.079v28.86
		c0,1.074,0.373,2.087,1.022,2.998l-3.341,3.34c-1.403-1.886-2.226-4.267-2.226-7.188v-6.796l-4.42-0.025
		c0,0-0.522,0.829-0.522,1.798c0,0.97,0.522,1.432,0.522,1.432h1.791v3.587c0,3.628,0.982,6.659,2.984,9.063l-9.916,9.917
		l3.215,3.212l10.185-10.184c1.688,1.029,3.705,1.856,6.081,2.459v3.436c0,0,1.055,0.528,3.582,0.714v3.652
		c-8.976,0.364-14.335,1.789-14.335,3.497c0,0.31,0,1.046,0,1.357c0,1.977,7.219,3.584,16.13,3.584c8.907,0,16.13-1.607,16.13-3.584
		c0-0.312,0-1.048,0-1.357c0-1.708-5.365-3.133-14.337-3.497v-3.652c2.533-0.186,3.584-0.714,3.584-0.714v-3.47
		c8.47-2.215,12.546-7.31,12.546-14.434v-3.587h1.869c0,0,0.818-0.466,0.818-1.516C68.72,44.043,67.901,43.372,67.901,43.372z"/>
</g>
</svg>
