<?xml version="1.0" encoding="utf-8"?>
<!-- Generator: Adobe Illustrator 14.0.0, SVG Export Plug-In . SVG Version: 6.00 Build 43363)  -->
<!DOCTYPE svg PUBLIC "-//W3C//DTD SVG 1.1//EN" "http://www.w3.org/Graphics/SVG/1.1/DTD/svg11.dtd">
<svg version="1.1" id="Layer_1" xmlns="http://www.w3.org/2000/svg" xmlns:xlink="http://www.w3.org/1999/xlink" x="0px" y="0px"
	 width="480px" height="480px" viewBox="-216 -216 480 480" enable-background="new -216 -216 480 480" xml:space="preserve">
<g>
	<path d="M130.078-95.914c0-7.172-5.828-12.969-12.969-12.969h-24.82c-7.156,0-12.969,5.797-12.969,12.969v5.578l50.758,50.766
		V-95.914z"/>
	<polygon points="-80.406,47.977 -80.406,174.258 -10.391,174.258 -10.391,75.922 59.219,75.922 59.219,174.258 130.078,174.258 
		130.078,49.445 24.094,-56.531 	"/>
	<path d="M189.344,33.758L33.133-122.453c-5.078-5.07-13.281-5.07-18.352,0L2.703-110.375c-0.195,0.195-0.242,0.445-0.422,0.641
		L-141.344,33.891c-5.055,5.07-5.055,13.281,0,18.336l12.078,12.086c5.07,5.07,13.281,5.07,18.344,0L24.062-70.672L158.906,64.18
		c5.062,5.062,13.281,5.062,18.336,0l12.086-12.086C194.398,47.039,194.398,38.836,189.344,33.758z"/>
</g>
</svg>
