<?xml version="1.0" encoding="utf-8"?>
<!-- Generator: Adobe Illustrator 14.0.0, SVG Export Plug-In . SVG Version: 6.00 Build 43363)  -->
<!DOCTYPE svg PUBLIC "-//W3C//DTD SVG 1.1//EN" "http://www.w3.org/Graphics/SVG/1.1/DTD/svg11.dtd">
<svg version="1.1" id="Layer_1" xmlns="http://www.w3.org/2000/svg" xmlns:xlink="http://www.w3.org/1999/xlink" x="0px" y="0px"
	 width="480px" height="480px" viewBox="-216 -216 480 480" enable-background="new -216 -216 480 480" xml:space="preserve">
<g>
	<path d="M24-136.43c-59.094,0-106.992,47.898-106.992,106.992c0,25.367,8.836,48.68,23.594,67.016
		c17.914,22.273,56.461,42.32,64.117,130.734c0,5.188,3.219,16.117,19.281,16.117c16.055,0,19.57-10.938,19.57-16.117
		c7.656-88.414,45.914-108.469,63.828-130.734c14.766-18.328,23.594-41.648,23.594-67.016C130.992-88.531,83.078-136.43,24-136.43z
		 M22.328,5.312c-19.109,0-34.594-15.492-34.594-34.602c0-19.102,15.484-34.594,34.594-34.594S56.93-48.391,56.93-29.289
		C56.93-10.172,41.438,5.312,22.328,5.312z"/>
</g>
</svg>
