<?xml version="1.0" encoding="utf-8"?>
<!-- Generator: Adobe Illustrator 14.0.0, SVG Export Plug-In . SVG Version: 6.00 Build 43363)  -->
<!DOCTYPE svg PUBLIC "-//W3C//DTD SVG 1.1//EN" "http://www.w3.org/Graphics/SVG/1.1/DTD/svg11.dtd">
<svg version="1.1" id="Layer_1" xmlns="http://www.w3.org/2000/svg" xmlns:xlink="http://www.w3.org/1999/xlink" x="0px" y="0px"
	 width="480px" height="480px" viewBox="-216 -216 480 480" enable-background="new -216 -216 480 480" xml:space="preserve">
<g>
	<path d="M-55.531,26.195c0-44.414,36.023-80.438,80.438-80.438c19.188,0,36.711,6.844,50.5,18.078L43.781-6.07l99.945,11.367
		l0.805-107.242l-30.766,29.289C90.219-93.859,59.141-106.82,24.961-106.82c-73.469,0-133.023,59.562-133.023,133.016
		c0,2.742,0.242-2.266,0.414,0.445l53.68,7.555C-54.969,29.109-55.531,31.562-55.531,26.195z"/>
	<path d="M155.648,21.375l-53.68-7.555c1.016,5.086,1.555,2.617,1.555,7.992c0,44.414-36.008,80.43-80.43,80.43
		c-19.133,0-36.602-6.797-50.383-17.969L4.305,54.195l-99.93-11.367l-0.812,107.25l30.789-29.312
		c23.531,21.141,54.57,34.055,88.688,34.055c73.469,0,133.023-59.555,133.023-133.008C156.062,19.078,155.812,24.086,155.648,21.375
		z"/>
</g>
</svg>
