<?xml version="1.0" encoding="iso-8859-1"?>
<!DOCTYPE svg PUBLIC "-//W3C//DTD SVG 1.1//EN" "http://www.w3.org/Graphics/SVG/1.1/DTD/svg11.dtd">
<svg version="1.1" xmlns="http://www.w3.org/2000/svg" xmlns:xlink="http://www.w3.org/1999/xlink" x="0px" y="0px" width="480px"
	 height="480px" viewBox="0 0 480 480" style="enable-background:new 0 0 480 480;" xml:space="preserve">
  <path d="M370.38,327.999l-41.203-41.203c-7.585-7.595-18.232-10.255-27.97-7.992l-15.386-15.367
  	c12.34-16.901,19.63-37.726,19.63-60.257c0.007-56.492-45.805-102.289-102.305-102.289S100.849,146.688,100.849,203.18
  	c0,56.508,45.798,102.305,102.298,102.305c22.603,0,43.492-7.338,60.425-19.753l15.307,15.296
  	c-2.32,9.772,0.328,20.479,7.955,28.104l41.211,41.211c11.703,11.688,30.633,11.688,42.336,0
  	C382.075,358.641,382.075,339.688,370.38,327.999z M203.114,273.983c-39.117,0-70.828-31.703-70.828-70.828
  	c0-39.117,31.711-70.82,70.828-70.82c39.102,0,70.828,31.72,70.828,70.82C273.943,242.272,242.216,273.983,203.114,273.983z"/>
</svg>
