<?xml version="1.0" encoding="utf-8"?>
<!-- Generator: Adobe Illustrator 14.0.0, SVG Export Plug-In . SVG Version: 6.00 Build 43363)  -->
<!DOCTYPE svg PUBLIC "-//W3C//DTD SVG 1.1//EN" "http://www.w3.org/Graphics/SVG/1.1/DTD/svg11.dtd">
<svg version="1.1" id="Layer_1" xmlns="http://www.w3.org/2000/svg" xmlns:xlink="http://www.w3.org/1999/xlink" x="0px" y="0px"
	 width="480px" height="480px" viewBox="-216 -216 480 480" enable-background="new -216 -216 480 480" xml:space="preserve">
<g>
	<g>
		<g>
			<path d="M155.891-125.852L24-75.422l-131.891-50.43l-23.625,152.945l50.328-29.062l33.125,57.398
				C-32.93,33.062-7.609,18.211,21.234,17.352l-33.969-58.828L24-62.688l36.734,21.211L26.758,17.375
				c28.82,0.953,54.102,15.875,69.156,38.32l33.281-57.656l50.32,29.062L155.891-125.852z"/>
		</g>
	</g>
	<path d="M23.836,33.812c38.773,0,70.203,31.422,70.203,70.188c0,38.773-31.43,70.203-70.203,70.203
		c-38.766,0-70.195-31.43-70.195-70.203C-46.359,65.234-14.93,33.812,23.836,33.812z"/>
</g>
</svg>
